<svg height="512" viewBox="0 0 64 64" width="512" xmlns="http://www.w3.org/2000/svg"><g id="_01_Bar_Chart" data-name="01 Bar Chart"><path d="m17 14h-8a1 1 0 0 0 -1 1v47h10v-47a1 1 0 0 0 -1-1z" fill="#ff3c38"/><path d="m21 22h10v40h-10z" fill="#ffcf4d"/><path d="m43 30h-8a1 1 0 0 0 -1 1v31h10v-31a1 1 0 0 0 -1-1z" fill="#3abeff"/><path d="m56 38h-8a1 1 0 0 0 -1 1v23h10v-23a1 1 0 0 0 -1-1z" fill="#8bc34a"/><path d="m61 62h-58a1 1 0 0 1 -1-1v-58a1 1 0 0 1 2 0v57h57a1 1 0 0 1 0 2z" fill="#46464e"/></g></svg>