<svg width="158" height="34" viewBox="0 0 158 34" fill="none" xmlns="http://www.w3.org/2000/svg">
<path d="M67 25.24C65.72 25.24 64.62 24.94 63.7 24.34C62.7933 23.7267 62.16 22.8867 61.8 21.82L63 21.12C63.2533 21.9867 63.72 22.6667 64.4 23.16C65.08 23.64 65.9533 23.88 67.02 23.88C68.06 23.88 68.8667 23.6533 69.44 23.2C70.0267 22.7333 70.32 22.12 70.32 21.36C70.32 20.6267 70.0533 20.0733 69.52 19.7C68.9867 19.3267 68.1067 18.94 66.88 18.54C65.4267 18.06 64.4667 17.6733 64 17.38C62.9333 16.74 62.4 15.8133 62.4 14.6C62.4 13.4133 62.8133 12.48 63.64 11.8C64.4667 11.1067 65.4867 10.76 66.7 10.76C67.7933 10.76 68.74 11.0467 69.54 11.62C70.34 12.18 70.9333 12.9 71.32 13.78L70.14 14.44C69.5 12.8933 68.3533 12.12 66.7 12.12C65.8333 12.12 65.1333 12.3333 64.6 12.76C64.0667 13.1867 63.8 13.78 63.8 14.54C63.8 15.2333 64.04 15.7533 64.52 16.1C65 16.4467 65.7933 16.8 66.9 17.16C67.4067 17.3333 67.7667 17.46 67.98 17.54C68.2067 17.6067 68.5267 17.7267 68.94 17.9C69.3667 18.06 69.68 18.2067 69.88 18.34C70.08 18.46 70.32 18.6333 70.6 18.86C70.8933 19.0733 71.1 19.2933 71.22 19.52C71.3533 19.7333 71.4667 20 71.56 20.32C71.6667 20.6267 71.72 20.96 71.72 21.32C71.72 22.5067 71.2867 23.46 70.42 24.18C69.5533 24.8867 68.4133 25.24 67 25.24ZM82.7188 15H84.0388V25H82.7188V23.04C81.7988 24.5067 80.4521 25.24 78.6788 25.24C77.2521 25.24 76.0321 24.7333 75.0188 23.72C74.0188 22.7067 73.5188 21.4667 73.5188 20C73.5188 18.5333 74.0188 17.2933 75.0188 16.28C76.0321 15.2667 77.2521 14.76 78.6788 14.76C80.4521 14.76 81.7988 15.4933 82.7188 16.96V15ZM75.9788 22.82C76.7388 23.58 77.6721 23.96 78.7788 23.96C79.8854 23.96 80.8188 23.58 81.5788 22.82C82.3388 22.0467 82.7188 21.1067 82.7188 20C82.7188 18.8933 82.3388 17.96 81.5788 17.2C80.8188 16.4267 79.8854 16.04 78.7788 16.04C77.6721 16.04 76.7388 16.4267 75.9788 17.2C75.2188 17.96 74.8388 18.8933 74.8388 20C74.8388 21.1067 75.2188 22.0467 75.9788 22.82ZM86.8336 25V10.4H88.1536V25H86.8336ZM95.5747 14.76C97.0547 14.76 98.248 15.2867 99.1547 16.34C100.075 17.38 100.535 18.6133 100.535 20.04C100.535 20.1867 100.521 20.3933 100.495 20.66H91.7147C91.848 21.6733 92.2747 22.48 92.9947 23.08C93.728 23.6667 94.628 23.96 95.6947 23.96C96.4547 23.96 97.108 23.8067 97.6547 23.5C98.2147 23.18 98.6347 22.7667 98.9147 22.26L100.075 22.94C99.6347 23.6467 99.0347 24.2067 98.2747 24.62C97.5147 25.0333 96.648 25.24 95.6747 25.24C94.1014 25.24 92.8214 24.7467 91.8347 23.76C90.848 22.7733 90.3547 21.52 90.3547 20C90.3547 18.5067 90.8414 17.26 91.8147 16.26C92.788 15.26 94.0414 14.76 95.5747 14.76ZM95.5747 16.04C94.5347 16.04 93.6614 16.3533 92.9547 16.98C92.2614 17.5933 91.848 18.3933 91.7147 19.38H99.1747C99.0414 18.3267 98.6347 17.5067 97.9547 16.92C97.2747 16.3333 96.4814 16.04 95.5747 16.04ZM103.284 17.62C103.284 18.0733 103.484 18.4333 103.884 18.7C104.284 18.9667 104.77 19.1733 105.344 19.32C105.917 19.4667 106.49 19.6333 107.064 19.82C107.637 19.9933 108.124 20.2933 108.524 20.72C108.924 21.1333 109.124 21.68 109.124 22.36C109.124 23.2133 108.784 23.9067 108.104 24.44C107.437 24.9733 106.57 25.24 105.504 25.24C104.544 25.24 103.724 25.0267 103.044 24.6C102.377 24.1733 101.91 23.62 101.644 22.94L102.764 22.28C102.95 22.8 103.284 23.2133 103.764 23.52C104.257 23.8133 104.837 23.96 105.504 23.96C106.157 23.96 106.704 23.8333 107.144 23.58C107.584 23.3133 107.804 22.9067 107.804 22.36C107.804 21.9067 107.604 21.5467 107.204 21.28C106.804 21.0133 106.317 20.8067 105.744 20.66C105.17 20.5133 104.597 20.3533 104.024 20.18C103.45 19.9933 102.964 19.6933 102.564 19.28C102.164 18.8533 101.964 18.3 101.964 17.62C101.964 16.8067 102.284 16.1267 102.924 15.58C103.577 15.0333 104.397 14.76 105.384 14.76C106.197 14.76 106.91 14.9467 107.524 15.32C108.137 15.68 108.59 16.1733 108.884 16.8L107.784 17.44C107.397 16.5067 106.597 16.04 105.384 16.04C104.81 16.04 104.317 16.18 103.904 16.46C103.49 16.7267 103.284 17.1133 103.284 17.62ZM122.866 25.28C120.759 25.28 119.019 24.58 117.646 23.18C116.272 21.78 115.586 20.0533 115.586 18C115.586 15.9333 116.272 14.2067 117.646 12.82C119.019 11.42 120.759 10.72 122.866 10.72C124.132 10.72 125.299 11.02 126.366 11.62C127.446 12.2067 128.286 13.0067 128.886 14.02L126.506 15.4C126.159 14.7733 125.666 14.2867 125.026 13.94C124.386 13.58 123.666 13.4 122.866 13.4C121.506 13.4 120.406 13.8267 119.566 14.68C118.739 15.5333 118.326 16.64 118.326 18C118.326 19.3467 118.739 20.4467 119.566 21.3C120.406 22.1533 121.506 22.58 122.866 22.58C123.666 22.58 124.386 22.4067 125.026 22.06C125.679 21.7 126.172 21.2133 126.506 20.6L128.886 21.98C128.286 22.9933 127.452 23.8 126.386 24.4C125.319 24.9867 124.146 25.28 122.866 25.28ZM138.261 25L135.441 20.14H133.341V25H130.581V11H136.181C137.475 11 138.575 11.4533 139.481 12.36C140.388 13.2667 140.841 14.36 140.841 15.64C140.841 16.5067 140.595 17.3133 140.101 18.06C139.608 18.7933 138.955 19.3467 138.141 19.72L141.241 25H138.261ZM133.341 13.58V17.72H136.181C136.701 17.72 137.148 17.52 137.521 17.12C137.895 16.7067 138.081 16.2133 138.081 15.64C138.081 15.0667 137.895 14.58 137.521 14.18C137.148 13.78 136.701 13.58 136.181 13.58H133.341ZM156.566 11V25H153.826V15.92L149.886 22.42H149.566L145.626 15.94V25H142.866V11H145.706L149.726 17.62L153.726 11H156.566Z" fill="#252737"/>
<path d="M13.5005 13.0205V32.7259C13.5005 33.424 12.942 33.9825 12.2438 33.9825H8.84032C8.14217 33.9825 7.58365 33.424 7.58365 32.7259V13.3172C8.38652 13.7012 9.29412 13.9107 10.2541 13.9107C10.6904 13.9107 11.1268 13.8583 11.5282 13.7885C12.2264 13.6489 12.9071 13.3696 13.5005 13.0205Z" fill="url(#paint0_linear_13_58)"/>
<path opacity="0.7" d="M13.5006 13.0205V32.7259C13.5006 33.424 12.942 33.9825 12.2439 33.9825H11.5283V13.7885C12.2264 13.6489 12.9071 13.3696 13.5006 13.0205Z" fill="url(#paint1_linear_13_58)"/>
<path d="M10.2541 11.9558C12.6447 11.9558 14.5826 10.0179 14.5826 7.6273C14.5826 5.23671 12.6447 3.29876 10.2541 3.29876C7.86352 3.29876 5.92557 5.23671 5.92557 7.6273C5.92557 10.0179 7.86352 11.9558 10.2541 11.9558Z" fill="url(#paint2_radial_13_58)"/>
<path opacity="0.7" d="M10.2541 3.29876C8.89272 3.29876 7.68841 3.9271 6.90298 4.90451C7.6535 4.29363 8.596 3.94456 9.62578 3.94456C12.0169 3.94456 13.9543 5.88193 13.9543 8.2731C13.9543 9.30287 13.5878 10.2628 12.9944 10.9959C13.9718 10.2105 14.6001 8.9887 14.6001 7.64476C14.5652 5.23614 12.6278 3.29876 10.2541 3.29876Z" fill="url(#paint3_linear_13_58)"/>
<path d="M20.7788 33.9826H17.3927C16.6946 33.9826 16.136 33.4241 16.136 32.7259V7.6797C16.136 6.98155 16.6946 6.42302 17.3927 6.42302H20.7788C21.4769 6.42302 22.0354 6.98155 22.0354 7.6797V32.7259C22.0529 33.4066 21.4769 33.9826 20.7788 33.9826Z" fill="url(#paint4_linear_13_58)"/>
<path opacity="0.7" d="M20.7787 33.9825H20.0631V6.40553H20.7787C21.4769 6.40553 22.0354 6.96405 22.0354 7.6622V32.7084C22.0528 33.4065 21.4769 33.9825 20.7787 33.9825Z" fill="url(#paint5_linear_13_58)"/>
<path d="M29.3311 33.9825H25.9276C25.2294 33.9825 24.6709 33.424 24.6709 32.7259V4.31107C24.6709 3.61292 25.2294 3.0544 25.9276 3.0544H29.3311C30.0292 3.0544 30.5877 3.61292 30.5877 4.31107V32.7259C30.5877 33.4065 30.0292 33.9825 29.3311 33.9825Z" fill="url(#paint6_linear_13_58)"/>
<path opacity="0.7" d="M29.3311 33.9826H28.6155V3.03697H29.3311C30.0293 3.03697 30.5878 3.59549 30.5878 4.29364V32.7084C30.5878 33.4066 30.0293 33.9826 29.3311 33.9826Z" fill="url(#paint7_linear_13_58)"/>
<path d="M37.8834 33.9825H34.4799C33.7817 33.9825 33.2232 33.424 33.2232 32.7259V1.25667C33.2232 0.558522 33.7817 0 34.4799 0H37.8834C38.5815 0 39.14 0.558522 39.14 1.25667V32.7084C39.14 33.4066 38.5815 33.9825 37.8834 33.9825Z" fill="url(#paint8_linear_13_58)"/>
<path d="M12.8721 21.2238C11.982 21.8696 11.1093 22.5503 10.2192 23.1961C9.36393 23.807 8.5087 24.348 7.58365 24.8368V32.7433C7.58365 33.4415 8.14217 34 8.84032 34H12.2438C12.942 34 13.5005 33.4415 13.5005 32.7433V21.2762C13.291 21.2413 13.0816 21.2238 12.8721 21.2238Z" fill="url(#paint9_linear_13_58)"/>
<path d="M19.5745 20.962C19.3127 20.9445 19.0509 20.9445 18.7716 20.9271C17.8989 21.0667 17.0088 21.1714 16.1187 21.2413V32.7259C16.1187 33.424 16.6772 33.9825 17.3753 33.9825H20.7788C21.477 33.9825 22.0355 33.424 22.0355 32.7259V20.8398C21.2326 20.9445 20.4123 20.9969 19.5745 20.962Z" fill="url(#paint10_linear_13_58)"/>
<path d="M26.0497 19.5134C25.5959 19.7577 25.1247 19.9497 24.6709 20.1417V32.7259C24.6709 33.424 25.2294 33.9826 25.9276 33.9826H29.3311C30.0292 33.9826 30.5877 33.424 30.5877 32.7259V16.8953C29.2612 18.0821 27.7602 18.9548 26.0497 19.5134Z" fill="url(#paint11_linear_13_58)"/>
<path d="M34.7767 16.9127C34.2531 16.7556 33.7295 16.5811 33.2058 16.424V32.7259C33.2058 33.424 33.7644 33.9825 34.4625 33.9825H37.8835C38.5816 33.9825 39.1401 33.424 39.1401 32.7259V17.8727C37.6915 17.6632 36.2428 17.3491 34.7767 16.9127Z" fill="url(#paint12_linear_13_58)"/>
<path opacity="0.7" d="M37.8835 33.9825H37.1678V0H37.8835C38.5816 0 39.1401 0.558522 39.1401 1.25667V32.7084C39.1401 33.4066 38.5816 33.9825 37.8835 33.9825Z" fill="url(#paint13_linear_13_58)"/>
<path d="M49.3157 15.5513L41.0601 23.807C39.6114 25.2556 37.2551 25.2556 35.8065 23.807L31.0939 19.0945C30.9194 18.9199 30.6401 18.9199 30.4656 19.0945L23.2223 26.3552C21.7736 27.8039 19.4174 27.8039 17.9687 26.3552L14.2859 22.6725C14.1114 22.4979 13.8321 22.4979 13.6576 22.6725L4.42454 31.9055C3.90092 32.4292 3.06314 32.4292 2.55698 31.9055L0.39271 29.7413C-0.130903 29.2177 -0.130903 28.3799 0.39271 27.8737L12.0693 16.1971C13.1165 15.1499 14.7921 15.1499 15.8393 16.1971L19.3301 19.6879C20.0108 20.386 21.1453 20.386 21.826 19.6879L28.8948 12.6191C29.942 11.5719 31.6176 11.5719 32.6648 12.6191L37.1853 17.1222C37.866 17.8029 39.0005 17.8029 39.6812 17.1222L45.2839 11.5195L46.5929 12.8285L49.3157 15.5513Z" fill="url(#paint14_linear_13_58)"/>
<path d="M28.5107 21.0667L30.483 19.0945C30.6576 18.9199 30.9368 18.9199 31.1114 19.0945L35.8239 23.807C37.2725 25.2556 39.6288 25.2556 41.0775 23.807L49.3331 15.5513L46.6103 12.8285L45.3013 11.5195L39.6986 17.1222C39.0179 17.8029 37.8834 17.8029 37.2027 17.1222L32.6822 12.6016C31.635 11.5544 29.9594 11.5544 28.9122 12.6016L24.4964 17.0175C25.8403 18.3614 27.1668 19.7053 28.5107 21.0667Z" fill="url(#paint15_linear_13_58)"/>
<g opacity="0.7">
<path d="M46.593 12.8285L40.4143 19.0072C39.3147 20.1068 37.5344 20.1068 36.4348 19.0072L31.9492 14.5216C31.3034 13.8758 30.2387 13.8758 29.593 14.5216L22.5591 21.5554C21.4595 22.655 19.6792 22.655 18.5796 21.5554L15.1238 18.0996C14.478 17.4538 13.4133 17.4538 12.7675 18.0996L0.776727 30.1078L0.410197 29.7413C-0.113417 29.2177 -0.113417 28.3799 0.410197 27.8737L12.0868 16.1971C13.134 15.1499 14.8096 15.1499 15.8568 16.1971L19.3476 19.6879C20.0283 20.386 21.1628 20.386 21.8435 19.6879L28.9123 12.6191C29.9595 11.5719 31.6351 11.5719 32.6823 12.6191L37.1854 17.1222C37.8661 17.8029 39.0006 17.8029 39.6813 17.1222L45.2839 11.5195L46.593 12.8285Z" fill="url(#paint16_linear_13_58)"/>
</g>
<path d="M52.7018 6.78954C53.5046 6.5801 54.2551 7.31316 54.0282 8.11603L53.8886 8.63965L52.8937 12.4097L51.3404 18.2043C51.1309 19.0072 50.1186 19.2865 49.5252 18.693L42.6833 11.8511L42.1422 11.3101C41.5488 10.7166 41.828 9.70433 42.6309 9.49488L48.4081 7.94149L52.7018 6.78954Z" fill="url(#paint17_linear_13_58)"/>
<g opacity="0.7">
<path d="M54.0457 8.11603L53.9061 8.63965L42.7007 11.8511L42.1597 11.3101C41.5662 10.7166 41.8455 9.70433 42.6484 9.49488L48.4256 7.94149L52.7192 6.78954C53.5221 6.5801 54.2551 7.31316 54.0457 8.11603Z" fill="url(#paint18_linear_13_58)"/>
</g>
<defs>
<linearGradient id="paint0_linear_13_58" x1="15.0995" y1="11.7863" x2="7.03432" y2="31.8701" gradientUnits="userSpaceOnUse">
<stop stop-color="#3A45FF"/>
<stop offset="1" stop-color="#3A78FF"/>
</linearGradient>
<linearGradient id="paint1_linear_13_58" x1="16.8455" y1="12.5833" x2="9.19385" y2="31.6375" gradientUnits="userSpaceOnUse">
<stop stop-color="white"/>
<stop offset="0.9964" stop-color="white" stop-opacity="0"/>
</linearGradient>
<radialGradient id="paint2_radial_13_58" cx="0" cy="0" r="1" gradientUnits="userSpaceOnUse" gradientTransform="translate(13.8546 2.714) scale(11.6933 11.6933)">
<stop stop-color="#F4AC24"/>
<stop offset="0.2042" stop-color="#F4A924"/>
<stop offset="0.3581" stop-color="#F59F23"/>
<stop offset="0.4957" stop-color="#F68F21"/>
<stop offset="0.6236" stop-color="#F7781F"/>
<stop offset="0.745" stop-color="#F95B1D"/>
<stop offset="0.8613" stop-color="#FC361A"/>
<stop offset="0.9717" stop-color="#FE0C16"/>
<stop offset="1" stop-color="#FF0015"/>
</radialGradient>
<linearGradient id="paint3_linear_13_58" x1="13.8162" y1="4.15559" x2="9.48731" y2="8.3571" gradientUnits="userSpaceOnUse">
<stop stop-color="white"/>
<stop offset="0.9964" stop-color="white" stop-opacity="0"/>
</linearGradient>
<linearGradient id="paint4_linear_13_58" x1="24.942" y1="5.61126" x2="14.6998" y2="31.1163" gradientUnits="userSpaceOnUse">
<stop stop-color="#3A45FF"/>
<stop offset="1" stop-color="#3A78FF"/>
</linearGradient>
<linearGradient id="paint5_linear_13_58" x1="26.4324" y1="6.30559" x2="16.6038" y2="30.7807" gradientUnits="userSpaceOnUse">
<stop stop-color="white"/>
<stop offset="0.9964" stop-color="white" stop-opacity="0"/>
</linearGradient>
<linearGradient id="paint6_linear_13_58" x1="34.1662" y1="2.23667" x2="22.7383" y2="30.6943" gradientUnits="userSpaceOnUse">
<stop stop-color="#3A45FF"/>
<stop offset="1" stop-color="#3A78FF"/>
</linearGradient>
<linearGradient id="paint7_linear_13_58" x1="35.6568" y1="2.93107" x2="24.6424" y2="30.3588" gradientUnits="userSpaceOnUse">
<stop stop-color="white"/>
<stop offset="0.9964" stop-color="white" stop-opacity="0"/>
</linearGradient>
<linearGradient id="paint8_linear_13_58" x1="43.3238" y1="-0.806453" x2="30.8266" y2="30.3139" gradientUnits="userSpaceOnUse">
<stop stop-color="#3A45FF"/>
<stop offset="1" stop-color="#3A78FF"/>
</linearGradient>
<linearGradient id="paint9_linear_13_58" x1="10.7472" y1="22.1731" x2="10.413" y2="32.7575" gradientUnits="userSpaceOnUse">
<stop stop-color="#13355C"/>
<stop offset="0.9964" stop-color="white" stop-opacity="0"/>
</linearGradient>
<linearGradient id="paint10_linear_13_58" x1="19.3322" y1="22.6921" x2="18.7752" y2="32.3852" gradientUnits="userSpaceOnUse">
<stop stop-color="#13355C"/>
<stop offset="0.9964" stop-color="white" stop-opacity="0"/>
</linearGradient>
<linearGradient id="paint11_linear_13_58" x1="27.631" y1="19.3285" x2="27.631" y2="31.9978" gradientUnits="userSpaceOnUse">
<stop stop-color="#13355C"/>
<stop offset="0.9964" stop-color="white" stop-opacity="0"/>
</linearGradient>
<linearGradient id="paint12_linear_13_58" x1="36.1772" y1="19.3285" x2="36.1772" y2="31.9978" gradientUnits="userSpaceOnUse">
<stop stop-color="#13355C"/>
<stop offset="0.9964" stop-color="white" stop-opacity="0"/>
</linearGradient>
<linearGradient id="paint13_linear_13_58" x1="44.8144" y1="-0.112088" x2="32.7308" y2="29.9784" gradientUnits="userSpaceOnUse">
<stop stop-color="white"/>
<stop offset="0.9964" stop-color="white" stop-opacity="0"/>
</linearGradient>
<linearGradient id="paint14_linear_13_58" x1="21.6275" y1="16.5691" x2="27.3519" y2="27.4454" gradientUnits="userSpaceOnUse">
<stop stop-color="#E4E61D"/>
<stop offset="0.9942" stop-color="#5FBD3F"/>
</linearGradient>
<linearGradient id="paint15_linear_13_58" x1="38.4556" y1="14.9803" x2="42.5415" y2="11.1862" gradientUnits="userSpaceOnUse">
<stop stop-color="#E4E61D" stop-opacity="0"/>
<stop offset="1" stop-color="#5FBD3F"/>
</linearGradient>
<linearGradient id="paint16_linear_13_58" x1="0.00875967" y1="20.8135" x2="46.6005" y2="20.8135" gradientUnits="userSpaceOnUse">
<stop stop-color="white"/>
<stop offset="0.9964" stop-color="white" stop-opacity="0"/>
</linearGradient>
<linearGradient id="paint17_linear_13_58" x1="48.8204" y1="5.42106" x2="46.6935" y2="14.6652" gradientUnits="userSpaceOnUse">
<stop stop-color="#E4E61D"/>
<stop offset="0.9942" stop-color="#5FBD3F"/>
</linearGradient>
<linearGradient id="paint18_linear_13_58" x1="41.8269" y1="9.30535" x2="54.0786" y2="9.30535" gradientUnits="userSpaceOnUse">
<stop stop-color="white"/>
<stop offset="0.9964" stop-color="white" stop-opacity="0"/>
</linearGradient>
</defs>
</svg>
