<svg width="168" height="40" viewBox="0 0 168 40" fill="none" xmlns="http://www.w3.org/2000/svg">
<path d="M76.06 28.26C74.7133 28.26 73.5667 27.9533 72.62 27.34C71.6867 26.7267 71.0333 25.8867 70.66 24.82L72.64 23.66C73.2 25.2333 74.36 26.02 76.12 26.02C76.9867 26.02 77.6333 25.8533 78.06 25.52C78.5 25.1733 78.72 24.7267 78.72 24.18C78.72 23.6067 78.4867 23.1733 78.02 22.88C77.5533 22.5733 76.7267 22.24 75.54 21.88C74.8733 21.68 74.3333 21.4933 73.92 21.32C73.5067 21.1467 73.0667 20.9067 72.6 20.6C72.1467 20.28 71.8067 19.8867 71.58 19.42C71.3533 18.9533 71.24 18.4067 71.24 17.78C71.24 16.54 71.68 15.56 72.56 14.84C73.44 14.1067 74.5 13.74 75.74 13.74C76.86 13.74 77.84 14.0133 78.68 14.56C79.52 15.1067 80.1667 15.86 80.62 16.82L78.68 17.94C78.0933 16.6333 77.1133 15.98 75.74 15.98C75.0733 15.98 74.54 16.14 74.14 16.46C73.74 16.7667 73.54 17.1867 73.54 17.72C73.54 18.24 73.74 18.6533 74.14 18.96C74.5533 19.2533 75.2933 19.5667 76.36 19.9C76.8933 20.0733 77.28 20.2067 77.52 20.3C77.7733 20.38 78.12 20.5133 78.56 20.7C79.0133 20.8867 79.3533 21.0733 79.58 21.26C79.8067 21.4467 80.0467 21.68 80.3 21.96C80.5667 22.24 80.7533 22.56 80.86 22.92C80.9667 23.28 81.02 23.6867 81.02 24.14C81.02 25.4067 80.56 26.4133 79.64 27.16C78.7333 27.8933 77.54 28.26 76.06 28.26ZM91.055 18H93.215V28H91.055V26.56C90.2417 27.6933 89.075 28.26 87.555 28.26C86.1817 28.26 85.0083 27.7533 84.035 26.74C83.0617 25.7133 82.575 24.4667 82.575 23C82.575 21.52 83.0617 20.2733 84.035 19.26C85.0083 18.2467 86.1817 17.74 87.555 17.74C89.075 17.74 90.2417 18.3 91.055 19.42V18ZM85.635 25.3C86.235 25.9 86.9883 26.2 87.895 26.2C88.8017 26.2 89.555 25.9 90.155 25.3C90.755 24.6867 91.055 23.92 91.055 23C91.055 22.08 90.755 21.32 90.155 20.72C89.555 20.1067 88.8017 19.8 87.895 19.8C86.9883 19.8 86.235 20.1067 85.635 20.72C85.035 21.32 84.735 22.08 84.735 23C84.735 23.92 85.035 24.6867 85.635 25.3ZM95.7327 28V13.4H97.8927V28H95.7327ZM102.101 23.92C102.261 24.68 102.627 25.2667 103.201 25.68C103.774 26.08 104.474 26.28 105.301 26.28C106.447 26.28 107.307 25.8667 107.881 25.04L109.661 26.08C108.674 27.5333 107.214 28.26 105.281 28.26C103.654 28.26 102.341 27.7667 101.341 26.78C100.341 25.78 99.8406 24.52 99.8406 23C99.8406 21.5067 100.334 20.26 101.321 19.26C102.307 18.2467 103.574 17.74 105.121 17.74C106.587 17.74 107.787 18.2533 108.721 19.28C109.667 20.3067 110.141 21.5533 110.141 23.02C110.141 23.2467 110.114 23.5467 110.061 23.92H102.101ZM102.081 22.16H107.961C107.814 21.3467 107.474 20.7333 106.941 20.32C106.421 19.9067 105.807 19.7 105.101 19.7C104.301 19.7 103.634 19.92 103.101 20.36C102.567 20.8 102.227 21.4 102.081 22.16ZM113.591 20.76C113.591 21.0933 113.771 21.36 114.131 21.56C114.504 21.7467 114.951 21.9133 115.471 22.06C116.004 22.1933 116.537 22.3533 117.071 22.54C117.604 22.7267 118.051 23.0467 118.411 23.5C118.784 23.94 118.971 24.5 118.971 25.18C118.971 26.14 118.597 26.8933 117.851 27.44C117.117 27.9867 116.191 28.26 115.071 28.26C114.084 28.26 113.237 28.0533 112.531 27.64C111.824 27.2267 111.311 26.6533 110.991 25.92L112.851 24.84C113.197 25.8 113.937 26.28 115.071 26.28C116.204 26.28 116.771 25.9067 116.771 25.16C116.771 24.84 116.584 24.58 116.211 24.38C115.851 24.18 115.404 24.0133 114.871 23.88C114.351 23.7333 113.824 23.5667 113.291 23.38C112.757 23.1933 112.304 22.8867 111.931 22.46C111.571 22.02 111.391 21.4667 111.391 20.8C111.391 19.88 111.737 19.14 112.431 18.58C113.137 18.02 114.011 17.74 115.051 17.74C115.877 17.74 116.611 17.9267 117.251 18.3C117.904 18.66 118.404 19.1667 118.751 19.82L116.931 20.84C116.584 20.08 115.957 19.7 115.051 19.7C114.637 19.7 114.291 19.7933 114.011 19.98C113.731 20.1533 113.591 20.4133 113.591 20.76ZM132.629 28.26C130.523 28.26 128.776 27.5667 127.389 26.18C126.003 24.78 125.309 23.0533 125.309 21C125.309 18.9467 126.003 17.2267 127.389 15.84C128.776 14.44 130.523 13.74 132.629 13.74C133.896 13.74 135.063 14.04 136.129 14.64C137.209 15.24 138.049 16.0533 138.649 17.08L136.649 18.24C136.276 17.5467 135.729 17 135.009 16.6C134.303 16.1867 133.509 15.98 132.629 15.98C131.136 15.98 129.923 16.4533 128.989 17.4C128.069 18.3467 127.609 19.5467 127.609 21C127.609 22.4533 128.069 23.6533 128.989 24.6C129.923 25.5467 131.136 26.02 132.629 26.02C133.509 26.02 134.309 25.82 135.029 25.42C135.749 25.0067 136.289 24.4533 136.649 23.76L138.649 24.9C138.063 25.9267 137.229 26.7467 136.149 27.36C135.083 27.96 133.909 28.26 132.629 28.26ZM148.54 28L145.58 22.9H142.86V28H140.56V14H146.16C147.413 14 148.473 14.44 149.34 15.32C150.22 16.1867 150.66 17.2467 150.66 18.5C150.66 19.3933 150.4 20.2133 149.88 20.96C149.373 21.6933 148.707 22.2267 147.88 22.56L151.06 28H148.54ZM142.86 16.16V20.84H146.16C146.773 20.84 147.293 20.6133 147.72 20.16C148.147 19.7067 148.36 19.1533 148.36 18.5C148.36 17.8467 148.147 17.2933 147.72 16.84C147.293 16.3867 146.773 16.16 146.16 16.16H142.86ZM166.226 14V28H163.926V18.02L159.666 25.06H159.386L155.126 18V28H152.826V14H155.306L159.526 21L163.766 14H166.226Z" fill="#0D1347"/>
<path d="M15.8829 15.3183V38.501C15.8829 39.3224 15.2258 39.9795 14.4044 39.9795H10.4003C9.57899 39.9795 8.92191 39.3224 8.92191 38.501V15.6673C9.86646 16.1191 10.9342 16.3655 12.0636 16.3655C12.5769 16.3655 13.0903 16.3039 13.5626 16.2218C14.3839 16.0575 15.1847 15.7289 15.8829 15.3183Z" fill="url(#paint0_linear_12_56)"/>
<path opacity="0.7" d="M15.883 15.3183V38.501C15.883 39.3224 15.2259 39.9795 14.4045 39.9795H13.5626V16.2218C14.384 16.0575 15.1848 15.7289 15.883 15.3183Z" fill="url(#paint1_linear_12_56)"/>
<path d="M12.0636 14.0657C14.8761 14.0657 17.156 11.7857 17.156 8.97329C17.156 6.16084 14.8761 3.88089 12.0636 3.88089C9.25117 3.88089 6.97122 6.16084 6.97122 8.97329C6.97122 11.7857 9.25117 14.0657 12.0636 14.0657Z" fill="url(#paint2_radial_12_56)"/>
<path opacity="0.7" d="M12.0636 3.8809C10.462 3.8809 9.04515 4.62012 8.12112 5.77002C9.00408 5.05133 10.1129 4.64065 11.3244 4.64065C14.1375 4.64065 16.4168 6.91991 16.4168 9.73306C16.4168 10.9446 15.9856 12.0739 15.2874 12.9363C16.4373 12.0123 17.1766 10.5749 17.1766 8.99384C17.1355 6.16016 14.8562 3.8809 12.0636 3.8809Z" fill="url(#paint3_linear_12_56)"/>
<path d="M24.4456 39.9795H20.4621C19.6407 39.9795 18.9836 39.3224 18.9836 38.5011V9.03494C18.9836 8.21358 19.6407 7.5565 20.4621 7.5565H24.4456C25.267 7.5565 25.9241 8.21358 25.9241 9.03494V38.5011C25.9446 39.3019 25.267 39.9795 24.4456 39.9795Z" fill="url(#paint4_linear_12_56)"/>
<path opacity="0.7" d="M24.4456 39.9794H23.6037V7.53591H24.4456C25.2669 7.53591 25.924 8.193 25.924 9.01435V38.4805C25.9446 39.3018 25.2669 39.9794 24.4456 39.9794Z" fill="url(#paint5_linear_12_56)"/>
<path d="M34.5071 39.9794H30.503C29.6817 39.9794 29.0246 39.3224 29.0246 38.501V5.07185C29.0246 4.2505 29.6817 3.59341 30.503 3.59341H34.5071C35.3285 3.59341 35.9856 4.2505 35.9856 5.07185V38.501C35.9856 39.3018 35.3285 39.9794 34.5071 39.9794Z" fill="url(#paint6_linear_12_56)"/>
<path opacity="0.7" d="M34.5072 39.9795H33.6653V3.5729H34.5072C35.3285 3.5729 35.9856 4.22998 35.9856 5.05134V38.4805C35.9856 39.3019 35.3285 39.9795 34.5072 39.9795Z" fill="url(#paint7_linear_12_56)"/>
<path d="M44.5687 39.9795H40.5646C39.7433 39.9795 39.0862 39.3224 39.0862 38.501V1.47844C39.0862 0.657084 39.7433 0 40.5646 0H44.5687C45.3901 0 46.0472 0.657084 46.0472 1.47844V38.4805C46.0472 39.3019 45.3901 39.9795 44.5687 39.9795Z" fill="url(#paint8_linear_12_56)"/>
<path d="M15.1437 24.9692C14.0964 25.729 13.0697 26.5298 12.0225 27.2895C11.0164 28.0082 10.0102 28.6448 8.92191 29.2197V38.5216C8.92191 39.3429 9.57899 40 10.4003 40H14.4044C15.2258 40 15.8829 39.3429 15.8829 38.5216V25.0308C15.6365 24.9897 15.3901 24.9692 15.1437 24.9692Z" fill="url(#paint9_linear_12_56)"/>
<path d="M23.0287 24.6612C22.7207 24.6406 22.4127 24.6406 22.0842 24.6201C21.0575 24.7844 20.0103 24.9076 18.963 24.9897V38.501C18.963 39.3224 19.6201 39.9794 20.4415 39.9794H24.4456C25.2669 39.9794 25.924 39.3224 25.924 38.501V24.5174C24.9795 24.6406 24.0144 24.7022 23.0287 24.6612Z" fill="url(#paint10_linear_12_56)"/>
<path d="M30.6468 22.9569C30.1129 23.2444 29.5585 23.4702 29.0246 23.6961V38.501C29.0246 39.3224 29.6817 39.9795 30.503 39.9795H34.5071C35.3285 39.9795 35.9856 39.3224 35.9856 38.501V19.8768C34.425 21.2731 32.6591 22.2998 30.6468 22.9569Z" fill="url(#paint11_linear_12_56)"/>
<path d="M40.9137 19.8973C40.2977 19.7125 39.6817 19.5072 39.0656 19.3224V38.501C39.0656 39.3224 39.7227 39.9795 40.5441 39.9795H44.5687C45.3901 39.9795 46.0472 39.3224 46.0472 38.501V21.0267C44.3428 20.7803 42.6385 20.4107 40.9137 19.8973Z" fill="url(#paint12_linear_12_56)"/>
<path opacity="0.7" d="M44.5688 39.9795H43.7269V0H44.5688C45.3901 0 46.0472 0.657084 46.0472 1.47844V38.4805C46.0472 39.3019 45.3901 39.9795 44.5688 39.9795Z" fill="url(#paint13_linear_12_56)"/>
<path d="M58.0185 18.2957L48.306 28.0082C46.6016 29.7125 43.8296 29.7125 42.1253 28.0082L36.5811 22.4641C36.3758 22.2587 36.0472 22.2587 35.8419 22.4641L27.3203 31.0062C25.616 32.7105 22.8439 32.7105 21.1396 31.0062L16.807 26.6735C16.6016 26.4682 16.2731 26.4682 16.0678 26.6735L5.20534 37.5359C4.58932 38.1519 3.6037 38.1519 3.00821 37.5359L0.462012 34.9897C-0.154004 34.3737 -0.154004 33.3881 0.462012 32.7926L14.1992 19.0554C15.4312 17.8234 17.4025 17.8234 18.6345 19.0554L22.7413 23.1622C23.5421 23.9836 24.8768 23.9836 25.6776 23.1622L33.9938 14.846C35.2259 13.614 37.1971 13.614 38.4292 14.846L43.7474 20.1437C44.5483 20.9446 45.883 20.9446 46.6838 20.1437L53.2751 13.5524L54.8152 15.0924L58.0185 18.2957Z" fill="url(#paint14_linear_12_56)"/>
<path d="M33.542 24.7844L35.8623 22.4641C36.0677 22.2587 36.3962 22.2587 36.6016 22.4641L42.1457 28.0082C43.85 29.7125 46.6221 29.7125 48.3264 28.0082L58.0389 18.2957L54.8356 15.0924L53.2956 13.5524L46.7042 20.1437C45.9034 20.9446 44.5687 20.9446 43.7679 20.1437L38.4496 14.8255C37.2176 13.5934 35.2463 13.5934 34.0143 14.8255L28.8192 20.0205C30.4003 21.6016 31.9609 23.1827 33.542 24.7844Z" fill="url(#paint15_linear_12_56)"/>
<g opacity="0.7">
<path d="M54.8152 15.0924L47.5462 22.3614C46.2526 23.655 44.1581 23.655 42.8645 22.3614L37.5873 17.0842C36.8275 16.3244 35.575 16.3244 34.8152 17.0842L26.54 25.3593C25.2464 26.653 23.152 26.653 21.8583 25.3593L17.7926 21.2936C17.0329 20.5339 15.7803 20.5339 15.0205 21.2936L0.913762 35.4209L0.482551 34.9897C-0.133466 34.3737 -0.133466 33.3881 0.482551 32.7926L14.2197 19.0554C15.4518 17.8234 17.423 17.8234 18.655 19.0554L22.7618 23.1622C23.5626 23.9836 24.8973 23.9836 25.6982 23.1622L34.0144 14.846C35.2464 13.614 37.2177 13.614 38.4497 14.846L43.7474 20.1437C44.5483 20.9446 45.883 20.9446 46.6838 20.1437L53.2752 13.5524L54.8152 15.0924Z" fill="url(#paint16_linear_12_56)"/>
</g>
<path d="M62.002 7.9877C62.9466 7.74129 63.8295 8.60371 63.5626 9.54827L63.3983 10.1643L62.2279 14.5996L60.4004 21.4169C60.154 22.3614 58.963 22.69 58.2648 21.9918L50.2156 13.9425L49.579 13.306C48.8809 12.6078 49.2094 11.4169 50.154 11.1704L56.9507 9.34293L62.002 7.9877Z" fill="url(#paint17_linear_12_56)"/>
<g opacity="0.7">
<path d="M63.5831 9.54827L63.4188 10.1643L50.2361 13.9425L49.5995 13.306C48.9014 12.6078 49.2299 11.4169 50.1745 11.1704L56.9712 9.34293L62.0225 7.9877C62.9671 7.74129 63.8295 8.60371 63.5831 9.54827Z" fill="url(#paint18_linear_12_56)"/>
</g>
<defs>
<linearGradient id="paint0_linear_12_56" x1="17.764" y1="13.8663" x2="8.27564" y2="37.4942" gradientUnits="userSpaceOnUse">
<stop stop-color="#3A45FF"/>
<stop offset="1" stop-color="#3A78FF"/>
</linearGradient>
<linearGradient id="paint1_linear_12_56" x1="19.8182" y1="14.8039" x2="10.8162" y2="37.2205" gradientUnits="userSpaceOnUse">
<stop stop-color="white"/>
<stop offset="0.9964" stop-color="white" stop-opacity="0"/>
</linearGradient>
<radialGradient id="paint2_radial_12_56" cx="0" cy="0" r="1" gradientUnits="userSpaceOnUse" gradientTransform="translate(16.2995 3.19294) scale(13.7569 13.7569)">
<stop stop-color="#F4AC24"/>
<stop offset="0.2042" stop-color="#F4A924"/>
<stop offset="0.3581" stop-color="#F59F23"/>
<stop offset="0.4957" stop-color="#F68F21"/>
<stop offset="0.6236" stop-color="#F7781F"/>
<stop offset="0.745" stop-color="#F95B1D"/>
<stop offset="0.8613" stop-color="#FC361A"/>
<stop offset="0.9717" stop-color="#FE0C16"/>
<stop offset="1" stop-color="#FF0015"/>
</radialGradient>
<linearGradient id="paint3_linear_12_56" x1="16.2543" y1="4.88893" x2="11.1615" y2="9.83188" gradientUnits="userSpaceOnUse">
<stop stop-color="white"/>
<stop offset="0.9964" stop-color="white" stop-opacity="0"/>
</linearGradient>
<linearGradient id="paint4_linear_12_56" x1="29.3436" y1="6.60149" x2="17.2939" y2="36.6074" gradientUnits="userSpaceOnUse">
<stop stop-color="#3A45FF"/>
<stop offset="1" stop-color="#3A78FF"/>
</linearGradient>
<linearGradient id="paint5_linear_12_56" x1="31.097" y1="7.41833" x2="19.534" y2="36.2126" gradientUnits="userSpaceOnUse">
<stop stop-color="white"/>
<stop offset="0.9964" stop-color="white" stop-opacity="0"/>
</linearGradient>
<linearGradient id="paint6_linear_12_56" x1="40.1956" y1="2.63138" x2="26.751" y2="36.111" gradientUnits="userSpaceOnUse">
<stop stop-color="#3A45FF"/>
<stop offset="1" stop-color="#3A78FF"/>
</linearGradient>
<linearGradient id="paint7_linear_12_56" x1="41.9491" y1="3.44832" x2="28.9911" y2="35.7163" gradientUnits="userSpaceOnUse">
<stop stop-color="white"/>
<stop offset="0.9964" stop-color="white" stop-opacity="0"/>
</linearGradient>
<linearGradient id="paint8_linear_12_56" x1="50.9693" y1="-0.948768" x2="36.2667" y2="35.6634" gradientUnits="userSpaceOnUse">
<stop stop-color="#3A45FF"/>
<stop offset="1" stop-color="#3A78FF"/>
</linearGradient>
<linearGradient id="paint9_linear_12_56" x1="12.6438" y1="26.086" x2="12.2505" y2="38.5382" gradientUnits="userSpaceOnUse">
<stop stop-color="#13355C"/>
<stop offset="0.9964" stop-color="white" stop-opacity="0"/>
</linearGradient>
<linearGradient id="paint10_linear_12_56" x1="22.7437" y1="26.6965" x2="22.0884" y2="38.1002" gradientUnits="userSpaceOnUse">
<stop stop-color="#13355C"/>
<stop offset="0.9964" stop-color="white" stop-opacity="0"/>
</linearGradient>
<linearGradient id="paint11_linear_12_56" x1="32.5071" y1="22.7394" x2="32.5071" y2="37.6444" gradientUnits="userSpaceOnUse">
<stop stop-color="#13355C"/>
<stop offset="0.9964" stop-color="white" stop-opacity="0"/>
</linearGradient>
<linearGradient id="paint12_linear_12_56" x1="42.5614" y1="22.7394" x2="42.5614" y2="37.6444" gradientUnits="userSpaceOnUse">
<stop stop-color="#13355C"/>
<stop offset="0.9964" stop-color="white" stop-opacity="0"/>
</linearGradient>
<linearGradient id="paint13_linear_12_56" x1="52.7228" y1="-0.131868" x2="38.5068" y2="35.2687" gradientUnits="userSpaceOnUse">
<stop stop-color="white"/>
<stop offset="0.9964" stop-color="white" stop-opacity="0"/>
</linearGradient>
<linearGradient id="paint14_linear_12_56" x1="25.4441" y1="19.493" x2="32.1787" y2="32.2887" gradientUnits="userSpaceOnUse">
<stop stop-color="#E4E61D"/>
<stop offset="0.9942" stop-color="#5FBD3F"/>
</linearGradient>
<linearGradient id="paint15_linear_12_56" x1="45.2418" y1="17.6239" x2="50.0488" y2="13.1602" gradientUnits="userSpaceOnUse">
<stop stop-color="#E4E61D" stop-opacity="0"/>
<stop offset="1" stop-color="#5FBD3F"/>
</linearGradient>
<linearGradient id="paint16_linear_12_56" x1="0.0102714" y1="24.4864" x2="54.8241" y2="24.4864" gradientUnits="userSpaceOnUse">
<stop stop-color="white"/>
<stop offset="0.9964" stop-color="white" stop-opacity="0"/>
</linearGradient>
<linearGradient id="paint17_linear_12_56" x1="57.4357" y1="6.37772" x2="54.9334" y2="17.2531" gradientUnits="userSpaceOnUse">
<stop stop-color="#E4E61D"/>
<stop offset="0.9942" stop-color="#5FBD3F"/>
</linearGradient>
<linearGradient id="paint18_linear_12_56" x1="49.208" y1="10.9475" x2="63.6218" y2="10.9475" gradientUnits="userSpaceOnUse">
<stop stop-color="white"/>
<stop offset="0.9964" stop-color="white" stop-opacity="0"/>
</linearGradient>
</defs>
</svg>
