<svg width="480" height="480" viewBox="0 0 480 480" fill="none" xmlns="http://www.w3.org/2000/svg">
<path d="M480 240C480 260.48 454.84 277.36 449.8 296.24C444.6 315.76 457.76 342.96 447.88 360.04C437.84 377.4 407.64 379.48 393.56 393.56C379.48 407.64 377.4 437.84 360.04 447.88C342.96 457.76 315.76 444.6 296.24 449.8C277.36 454.84 260.48 480 240 480C219.52 480 202.64 454.84 183.76 449.8C164.24 444.6 137.04 457.76 119.96 447.88C102.6 437.84 100.52 407.64 86.44 393.56C72.36 379.48 42.16 377.4 32.12 360.04C22.24 342.96 35.4 315.76 30.2 296.24C25.16 277.36 0 260.48 0 240C0 219.52 25.16 202.64 30.2 183.76C35.4 164.24 22.24 137.04 32.12 119.96C42.16 102.6 72.36 100.52 86.44 86.44C100.52 72.36 102.6 42.16 119.96 32.12C137.04 22.24 164.24 35.4 183.76 30.2C202.64 25.16 219.52 0 240 0C260.48 0 277.36 25.16 296.24 30.2C315.76 35.4 342.96 22.24 360.04 32.12C377.4 42.16 379.48 72.36 393.56 86.44C407.64 100.52 437.84 102.6 447.88 119.96C457.76 137.04 444.6 164.24 449.8 183.76C454.84 202.64 480 219.52 480 240Z" fill="#D21931" fill-opacity="0.878431"/>
<path d="M256.815 240.501L330.408 166.905C335.197 162.118 335.197 154.378 330.408 149.59C325.621 144.803 317.881 144.803 313.094 149.59L239.499 223.187L165.906 149.59C161.117 144.803 153.379 144.803 148.592 149.59C143.803 154.378 143.803 162.118 148.592 166.905L222.185 240.501L148.592 314.098C143.803 318.885 143.803 326.625 148.592 331.412C150.978 333.8 154.114 335 157.249 335C160.384 335 163.518 333.8 165.906 331.412L239.499 257.816L313.094 331.412C315.482 333.8 318.616 335 321.751 335C324.886 335 328.02 333.8 330.408 331.412C335.197 326.625 335.197 318.885 330.408 314.098L256.815 240.501Z" fill="white"/>
</svg>
