<svg width="30" height="30" viewBox="0 0 30 30" fill="none" xmlns="http://www.w3.org/2000/svg">
<g clip-path="url(#clip0_7_14)">
<path d="M25.9318 16.1284L13.8716 30C21.3772 30 27.4906 24.0389 27.7355 16.5927C27.7439 16.3383 27.5373 16.1284 27.2827 16.1284H25.9318Z" fill="#793BCC"/>
<path d="M13.4072 2.26449C7.82707 2.4481 3.08164 5.92773 1.05334 10.8189V16.1284H13.8716V2.71732C13.8716 2.46271 13.6616 2.2561 13.4072 2.26449Z" fill="#14CFFF"/>
<path d="M1.05333 10.8189C0.375121 12.4545 0 14.2475 0 16.1284C0 19.959 1.55265 23.4268 4.06287 25.9371H13.8716V16.1284L1.05333 10.8189Z" fill="#3B88F5"/>
<path d="M13.8716 16.1284L4.06287 25.9371C6.57315 28.4474 10.041 29.9999 13.8716 29.9999C20.5323 29.9999 25.9318 23.7894 25.9318 16.1284H13.8716V16.1284Z" fill="#9255E3"/>
<path d="M16.3736 0.000240224C16.3592 -0.00024279 16.3448 0.000179847 16.3306 0.0010855L28.1885 14.0907H29.5469C29.8016 14.0907 30.008 13.8809 29.9998 13.6264C29.7598 6.20939 23.7906 0.240238 16.3736 0.000240224Z" fill="#61CE5B"/>
<path d="M16.3306 0.001091C16.096 0.0158833 15.9093 0.213013 15.9093 0.453071V13.6379C15.9093 13.888 16.112 14.0907 16.3621 14.0907H28.1885V13.6264C27.9795 6.21579 22.7864 0.250749 16.3306 0.001091Z" fill="#94E368"/>
</g>
<defs>
<clipPath id="clip0_7_14">
<rect width="30" height="30" fill="white"/>
</clipPath>
</defs>
</svg>
