<svg width="102" height="30" viewBox="0 0 102 30" fill="none" xmlns="http://www.w3.org/2000/svg">
<path d="M38.5556 21.1333C37.963 21.1333 37.4259 21.0148 36.9444 20.7778C36.4704 20.5407 36.0926 20.2519 35.8111 19.9111L36.1778 18.3778C36.3852 18.7926 36.6963 19.1667 37.1111 19.5C37.5259 19.8333 38.0222 20 38.6 20C39.1259 20 39.5593 19.8333 39.9 19.5C40.2481 19.1667 40.4222 18.7556 40.4222 18.2667C40.4222 17.9111 40.337 17.6185 40.1667 17.3889C39.9963 17.1593 39.8037 16.9778 39.5889 16.8444C39.3741 16.7111 39.2037 16.6148 39.0778 16.5556L37.8556 15.9333C37.663 15.8296 37.4222 15.6852 37.1333 15.5C36.8519 15.3148 36.6037 15.0593 36.3889 14.7333C36.1741 14.4074 36.0667 13.9852 36.0667 13.4667C36.0667 12.963 36.1815 12.5148 36.4111 12.1222C36.6481 11.7296 36.9741 11.4222 37.3889 11.2C37.8111 10.9778 38.2926 10.8667 38.8333 10.8667C39.3667 10.8667 39.837 10.963 40.2444 11.1556C40.6519 11.3407 40.9704 11.5333 41.2 11.7333L40.8333 13.2667C40.6481 12.9556 40.3741 12.663 40.0111 12.3889C39.6481 12.1148 39.237 11.9778 38.7778 11.9778C38.3333 11.9778 37.9778 12.1111 37.7111 12.3778C37.4444 12.637 37.3111 12.9593 37.3111 13.3444C37.3111 13.6407 37.3778 13.8852 37.5111 14.0778C37.6519 14.2704 37.8074 14.4222 37.9778 14.5333C38.1556 14.6444 38.3 14.7296 38.4111 14.7889L39.6556 15.4111C39.8037 15.4852 39.9889 15.5889 40.2111 15.7222C40.4407 15.8556 40.6667 16.0333 40.8889 16.2556C41.1111 16.4704 41.2963 16.737 41.4444 17.0556C41.5926 17.3667 41.6667 17.7444 41.6667 18.1889C41.6667 18.7593 41.5296 19.2667 41.2556 19.7111C40.9889 20.1556 40.6222 20.5037 40.1556 20.7556C39.6889 21.0074 39.1556 21.1333 38.5556 21.1333ZM46.2503 21.0889C45.6429 21.0889 45.0874 20.937 44.5837 20.6333C44.08 20.3222 43.6763 19.9074 43.3726 19.3889C43.0763 18.8704 42.9281 18.2963 42.9281 17.6667C42.9281 17.037 43.0763 16.463 43.3726 15.9444C43.6763 15.4259 44.08 15.0148 44.5837 14.7111C45.0874 14.4 45.6429 14.2444 46.2503 14.2444C46.7096 14.2444 47.1392 14.3296 47.5392 14.5C47.9466 14.6704 48.2985 14.9074 48.5948 15.2111V14.3333H49.7059V21H48.5948V20.1222C48.2985 20.4185 47.9466 20.6556 47.5392 20.8333C47.1392 21.0037 46.7096 21.0889 46.2503 21.0889ZM46.4059 20C46.8281 20 47.2096 19.8963 47.5503 19.6889C47.8985 19.4741 48.1726 19.1926 48.3726 18.8444C48.58 18.4889 48.6837 18.0963 48.6837 17.6667C48.6837 17.237 48.58 16.8481 48.3726 16.5C48.1726 16.1444 47.8985 15.863 47.5503 15.6556C47.2096 15.4407 46.8281 15.3333 46.4059 15.3333C45.9837 15.3333 45.5985 15.4407 45.2503 15.6556C44.9096 15.863 44.6355 16.1444 44.4281 16.5C44.2281 16.8481 44.1281 17.237 44.1281 17.6667C44.1281 18.0963 44.2281 18.4889 44.4281 18.8444C44.6355 19.1926 44.9096 19.4741 45.2503 19.6889C45.5985 19.8963 45.9837 20 46.4059 20ZM51.8323 21V10.3333H53.0323V21H51.8323ZM58.3382 21.1333C57.6419 21.1333 57.016 20.9778 56.4604 20.6667C55.9123 20.3556 55.4789 19.9333 55.1604 19.4C54.8493 18.8593 54.6938 18.2593 54.6938 17.6C54.6938 16.9704 54.8456 16.4 55.1493 15.8889C55.453 15.3704 55.8604 14.9593 56.3715 14.6556C56.89 14.3519 57.4604 14.2 58.0826 14.2C58.6975 14.2 59.2604 14.3481 59.7715 14.6444C60.2826 14.9333 60.69 15.3259 60.9938 15.8222C61.2975 16.3185 61.4493 16.8815 61.4493 17.5111V18H57.0938C56.9012 18 56.7049 17.9926 56.5049 17.9778C56.3049 17.963 56.1086 17.9407 55.916 17.9111C55.9975 18.5037 56.2641 19 56.716 19.4C57.1752 19.8 57.7197 20 58.3493 20C58.7715 20 59.1641 19.9037 59.5271 19.7111C59.89 19.5185 60.1826 19.263 60.4049 18.9444L60.7382 20.3111C60.4197 20.5704 60.053 20.7741 59.6382 20.9222C59.2308 21.063 58.7975 21.1333 58.3382 21.1333ZM55.8826 17.1C56.2826 17.0333 56.6863 17 57.0938 17H59.3049C59.4678 17 59.6271 17.0074 59.7826 17.0222C59.9456 17.0296 60.1086 17.0407 60.2715 17.0556C60.1678 16.537 59.9086 16.1111 59.4938 15.7778C59.0789 15.437 58.6086 15.2667 58.0826 15.2667C57.5419 15.2667 57.0678 15.4481 56.6604 15.8111C56.253 16.1667 55.9938 16.5963 55.8826 17.1ZM64.7733 21.1333C64.4325 21.1333 64.0659 21.0704 63.6733 20.9444C63.2881 20.8111 62.9547 20.5926 62.6733 20.2889L63.0066 18.9778C63.214 19.3259 63.4807 19.6037 63.8066 19.8111C64.1325 20.0111 64.4807 20.1111 64.851 20.1111C65.2066 20.1111 65.4733 20.0259 65.651 19.8556C65.8288 19.6778 65.9177 19.463 65.9177 19.2111C65.9177 18.9222 65.8214 18.7111 65.6288 18.5778C65.4436 18.4444 65.277 18.3519 65.1288 18.3L64.2288 17.9556C64.0659 17.8889 63.8696 17.7926 63.6399 17.6667C63.4103 17.5333 63.2103 17.3444 63.0399 17.1C62.8696 16.8556 62.7844 16.537 62.7844 16.1444C62.7844 15.7889 62.8696 15.463 63.0399 15.1667C63.2103 14.8704 63.451 14.637 63.7622 14.4667C64.0733 14.2889 64.4399 14.2 64.8622 14.2C65.1955 14.2 65.5436 14.2593 65.9066 14.3778C66.2696 14.4963 66.577 14.6963 66.8288 14.9778L66.4955 16.2889C66.3177 15.963 66.077 15.7037 65.7733 15.5111C65.4696 15.3185 65.1547 15.2222 64.8288 15.2222C64.5251 15.2222 64.2844 15.3074 64.1066 15.4778C63.9362 15.6481 63.851 15.8444 63.851 16.0667C63.851 16.2444 63.9103 16.4037 64.0288 16.5444C64.1473 16.6852 64.3251 16.8 64.5622 16.8889L65.4622 17.2333C65.6251 17.2926 65.8251 17.3889 66.0622 17.5222C66.3066 17.6556 66.5214 17.8481 66.7066 18.1C66.8918 18.3519 66.9844 18.6926 66.9844 19.1222C66.9844 19.7222 66.7733 20.2074 66.351 20.5778C65.9362 20.9481 65.4103 21.1333 64.7733 21.1333ZM76.8733 21.2C76.1473 21.2 75.4659 21.0667 74.8288 20.8C74.1918 20.5259 73.6325 20.1519 73.151 19.6778C72.6696 19.2037 72.2918 18.6519 72.0177 18.0222C71.751 17.3926 71.6177 16.7185 71.6177 16C71.6177 15.2815 71.751 14.6074 72.0177 13.9778C72.2918 13.3481 72.6696 12.7963 73.151 12.3222C73.6325 11.8481 74.1918 11.4778 74.8288 11.2111C75.4659 10.937 76.1473 10.8 76.8733 10.8C77.5547 10.8 78.1955 10.9185 78.7955 11.1556C79.4029 11.3926 79.9399 11.7259 80.4066 12.1556L79.9399 14.0889C79.6362 13.5852 79.2177 13.1741 78.6844 12.8556C78.1584 12.5296 77.5659 12.3667 76.9066 12.3667C76.2399 12.3667 75.6362 12.5296 75.0955 12.8556C74.5622 13.1815 74.1362 13.6185 73.8177 14.1667C73.5066 14.7148 73.351 15.3259 73.351 16C73.351 16.6667 73.5066 17.2778 73.8177 17.8333C74.1362 18.3815 74.5622 18.8185 75.0955 19.1444C75.6362 19.4704 76.2399 19.6333 76.9066 19.6333C77.5659 19.6333 78.1584 19.4704 78.6844 19.1444C79.2177 18.8185 79.6362 18.4074 79.9399 17.9111L80.4066 19.8444C79.9399 20.2667 79.4029 20.6 78.7955 20.8444C78.1955 21.0815 77.5547 21.2 76.8733 21.2ZM82.0792 21V11H84.8681C85.5421 11 86.1199 11.137 86.6014 11.4111C87.0903 11.6778 87.4644 12.0333 87.7236 12.4778C87.9829 12.9222 88.1125 13.4111 88.1125 13.9444C88.1125 14.4778 87.9792 14.9593 87.7125 15.3889C87.4458 15.8185 87.0718 16.1519 86.5903 16.3889L89.5903 21H87.7569L85.0569 16.8H83.6792V21H82.0792ZM83.6792 15.4333H84.8458C85.2384 15.4333 85.5569 15.3593 85.8014 15.2111C86.0532 15.063 86.2384 14.8741 86.3569 14.6444C86.4829 14.4148 86.5458 14.1815 86.5458 13.9444C86.5458 13.5148 86.3903 13.163 86.0792 12.8889C85.7681 12.6074 85.3569 12.4667 84.8458 12.4667H83.6792V15.4333ZM90.8271 21V10.6667L95.5271 16.8222L100.138 10.6667V21H98.5382V17.2556C98.5382 16.9444 98.5419 16.5963 98.5493 16.2111C98.5567 15.8259 98.5863 15.3889 98.6382 14.9C98.4086 15.2926 98.1863 15.637 97.9715 15.9333C97.7567 16.2296 97.5604 16.5 97.3826 16.7444L95.4826 19.3778L93.5271 16.7444C93.3493 16.5074 93.1493 16.2333 92.9271 15.9222C92.7049 15.6111 92.4826 15.263 92.2604 14.8778C92.3123 15.3815 92.3419 15.8259 92.3493 16.2111C92.3567 16.5889 92.3604 16.937 92.3604 17.2556V21H90.8271Z" fill="white"/>
<g clip-path="url(#clip0_7_14)">
<path d="M25.9318 16.1284L13.8716 30C21.3772 30 27.4906 24.0389 27.7355 16.5927C27.7439 16.3383 27.5373 16.1284 27.2827 16.1284H25.9318Z" fill="#793BCC"/>
<path d="M13.4072 2.26449C7.82707 2.4481 3.08164 5.92773 1.05334 10.8189V16.1284H13.8716V2.71732C13.8716 2.46271 13.6616 2.2561 13.4072 2.26449Z" fill="#14CFFF"/>
<path d="M1.05333 10.8189C0.375121 12.4545 0 14.2475 0 16.1284C0 19.959 1.55265 23.4268 4.06287 25.9371H13.8716V16.1284L1.05333 10.8189Z" fill="#3B88F5"/>
<path d="M13.8716 16.1284L4.06287 25.9371C6.57315 28.4474 10.041 29.9999 13.8716 29.9999C20.5323 29.9999 25.9318 23.7894 25.9318 16.1284H13.8716V16.1284Z" fill="#9255E3"/>
<path d="M16.3736 0.000240224C16.3592 -0.00024279 16.3448 0.000179847 16.3306 0.0010855L28.1885 14.0907H29.5469C29.8016 14.0907 30.008 13.8809 29.9998 13.6264C29.7598 6.20939 23.7906 0.240238 16.3736 0.000240224Z" fill="#61CE5B"/>
<path d="M16.3306 0.001091C16.096 0.0158833 15.9093 0.213013 15.9093 0.453071V13.6379C15.9093 13.888 16.112 14.0907 16.3621 14.0907H28.1885V13.6264C27.9795 6.21579 22.7864 0.250749 16.3306 0.001091Z" fill="#94E368"/>
</g>
<defs>
<clipPath id="clip0_7_14">
<rect width="30" height="30" fill="white"/>
</clipPath>
</defs>
</svg>
